Coordinates
version=1
nRows=28
nColumns=23
inDegrees=yes

Units are S.I. units (second, meters, Newtons, ...)
If the header above contains a line with 'inDegrees', this indicates whether rotational values are in degrees (yes) or radians (no).

endheader
time	pelvis_tilt	pelvis_list	pelvis_rotation	pelvis_tx	pelvis_ty	pelvis_tz	hip_flexion_r	hip_adduction_r	hip_rotation_r	knee_angle_r	knee_angle_r_beta	ankle_angle_r	subtalar_angle_r	mtp_angle_r	hip_flexion_l	hip_adduction_l	hip_rotation_l	knee_angle_l	knee_angle_l_beta	ankle_angle_l	subtalar_angle_l	mtp_angle_l
     15.00000000	    -16.83959876	      0.00100908	     -5.74436824	      2.18671244	      1.00775575	      1.02490220	     44.73027007	      1.33332037	     -9.54408634	     43.93775155	      0.76685843	     14.13489157	     -9.12521531	      0.00000000	     16.80283870	    -10.46338571	    -10.19823128	    106.63090515	      1.86106038	    -12.81661246	    -16.79080546	      0.00000000
     15.00666667	    -17.48662670	     -0.17636509	     -5.74234774	      2.18371905	      1.00312115	      1.02580719	     44.69181195	      1.90045947	     -8.39992559	     45.75583513	      0.79858998	     16.25923512	    -10.59810299	      0.00000000	     20.12586587	    -11.04165640	     -9.48838185	    109.29560387	      1.90756815	    -11.92588223	    -15.96992805	      0.00000000
     15.01333333	    -18.09599067	     -0.35493149	     -5.61387610	      2.18083423	      0.99927854	      1.02649134	     44.33632631	      2.24331481	     -7.69965625	     47.20440232	      0.82387224	     18.51331223	    -11.21865384	      0.00000000	     23.55914386	    -11.51207475	     -8.62187161	    111.61546291	      1.94805732	    -10.94223858	    -14.94209803	      0.00000000
     15.02000000	    -18.64991686	     -0.58480082	     -5.40729830	      2.17809445	      0.99638280	      1.02707057	     43.61450183	      2.52067335	     -7.22816766	     48.16245525	      0.84059342	     20.64102519	    -11.54714263	      0.00000000	     27.04268701	    -11.92110540	     -7.64854236	    113.55382406	      1.98188811	     -9.99726879	    -13.90181763	      0.00000000
     15.02666667	    -19.13557074	     -0.82365232	     -5.08171390	      2.17564837	      0.99447676	      1.02740726	     42.52532120	      2.62272909	     -7.07209691	     48.65941506	      0.84926700	     22.56828530	    -11.52469559	      0.00000000	     30.53617543	    -12.16573771	     -6.58748089	    115.07040052	      2.00835736	     -9.06096765	    -12.87321888	      0.00000000
     15.03333333	    -19.50050375	     -1.05666262	     -4.65773913	      2.17356350	      0.99359515	      1.02749102	     41.03692735	      2.54559709	     -7.22260340	     48.72308271	      0.85037822	     24.27606916	    -11.08596250	      0.00000000	     33.92780874	    -12.22202948	     -5.52071222	    116.14216810	      2.02706323	     -8.18598018	    -11.96705988	      0.00000000
     15.04000000	    -19.71638983	     -1.22926186	     -4.14247284	      2.17198589	      0.99376694	      1.02732677	     39.14483147	      2.23784000	     -7.69283185	     48.39890077	      0.84472017	     25.77997237	    -10.07933516	      0.00000000	     37.11255435	    -12.01811756	     -4.53019447	    116.73677431	      2.03744107	     -7.38987161	    -11.24839535	      0.00000000
     15.04666667	    -19.84570481	     -1.46461904	     -3.55162935	      2.17092774	      0.99497735	      1.02697297	     36.87075010	      1.91340809	     -8.42359237	     47.54702774	      0.82985218	     26.69686119	     -9.10817058	      0.00000000	     40.11785013	    -11.74662757	     -3.59733780	    116.86693936	      2.03971288	     -6.75990593	    -10.81427484	      0.00000000
     15.05333333	    -19.86770343	     -1.60486732	     -2.88004841	      2.17043198	      0.99706589	      1.02647137	     34.29182623	      1.44048248	     -9.34045935	     46.35788851	      0.80909779	     27.25353623	     -7.94339932	      0.00000000	     42.86260187	    -11.21031723	     -2.81061190	    116.53729142	      2.03395944	     -6.17631073	    -10.60236770	      0.00000000
     15.06000000	    -19.66111654	     -1.60358390	     -2.19331411	      2.17077151	      1.00019600	      1.02577078	     31.27565220	      0.66031875	    -10.77076826	     44.88884853	      0.78345820	     27.59528798	     -5.41218877	      0.00000000	     45.09261922	    -10.46042929	     -2.33063812	    115.71260421	      2.01956593	     -5.61357443	    -10.47908815	      0.00000000
     15.06666667	    -19.45325484	     -1.56275724	     -1.44390676	      2.17151775	      1.00393702	      1.02501258	     28.12571502	     -0.05708580	    -12.22368170	     43.10614914	      0.75234423	     27.45730378	     -3.28934924	      0.00000000	     47.13423942	     -9.57530456	     -1.95342835	    114.49279061	      1.99827617	     -5.14005086	    -10.66051874	      0.00000000
     15.07333333	    -19.20306694	     -1.40161684	     -0.68795812	      2.17282126	      1.00827805	      1.02426332	     24.83087290	     -0.84118165	    -13.83319936	     41.09939193	      0.71731971	     26.78214593	     -0.98415153	      0.00000000	     48.86911535	     -8.55483586	     -1.80099526	    112.87567815	      1.97005223	     -4.61282559	    -10.92064891	      0.00000000
     15.08000000	    -19.02771675	     -1.11257225	      0.04269414	      2.17456113	      1.01292482	      1.02353386	     21.57728843	     -1.70908251	    -15.64353178	     38.96162613	      0.68000866	     25.50184774	      1.54734755	      0.00000000	     50.42452509	     -7.42058192	     -1.86527382	    110.90244485	      1.93561281	     -4.04394051	    -11.21718453	      0.00000000
     15.08666667	    -18.83134811	     -0.88564750	      0.68761181	      2.17668716	      1.01801557	      1.02312822	     18.25810727	     -2.19697818	    -17.08761996	     36.49743605	      0.63700043	     23.31933242	      3.23971353	      0.00000000	     51.71895865	     -6.44927854	     -2.01138959	    108.62348391	      1.89583744	     -3.46552538	    -11.59802874	      0.00000000
     15.09333333	    -19.04088527	     -0.54971870	      1.20045862	      2.17885182	      1.02277102	      1.02294065	     15.49378775	     -2.66700641	    -18.35492469	     34.05215981	      0.59432231	     20.27734298	      4.46906720	      0.00000000	     53.23294223	     -5.50011952	     -2.39015954	    106.08077488	      1.85145879	     -2.86557505	    -11.94175810	      0.00000000
     15.10000000	    -18.56973813	     -0.14559327	      1.74207271	      2.18180763	      1.02867863	      1.02283186	     11.93811070	     -3.13978004	    -19.88429276	     31.41611957	      0.54831472	     17.07215924	      6.36139770	      0.00000000	     53.71641611	     -4.51716915	     -2.84402613	    103.20827643	      1.80132424	     -2.20760831	    -12.30359321	      0.00000000
     15.10666667	    -18.68568271	      0.24858865	      2.18657283	      2.18459123	      1.03378179	      1.02294209	      9.20470026	     -3.44740038	    -21.04542865	     28.87547541	      0.50397212	     13.09776317	      7.22885086	      0.00000000	     54.68669107	     -3.60146257	     -3.35374629	    100.14864996	      1.74792368	     -1.69392597	    -12.77532058	      0.00000000
     15.11333333	    -18.69153549	      0.75970767	      2.45961457	      2.18755392	      1.03904751	      1.02333881	      6.51421912	     -3.78037114	    -21.93172082	     26.43348950	      0.46135142	      8.75179928	      7.84760459	      0.00000000	     55.29890262	     -2.79047272	     -4.09814753	     96.83693460	      1.69012335	     -1.15337176	    -13.23199993	      0.00000000
     15.12000000	    -19.06469593	      1.34084519	      2.55229166	      2.19030202	      1.04371632	      1.02393290	      4.52174601	     -4.26218645	    -22.73948245	     24.42869326	      0.42636113	      4.12883942	      8.17258223	      0.00000000	     56.13453793	     -2.09037850	     -5.03618298	     93.31485074	      1.62865139	     -0.65012723	    -13.60725308	      0.00000000
     15.12666667	    -18.87641267	      1.86888736	      2.73494381	      2.19349052	      1.04910233	      1.02452272	      1.88264273	     -4.39595306	    -22.87424657	     22.08660247	      0.38548393	     -0.65456898	      7.33964215	      0.00000000	     56.18349535	     -1.37226615	     -5.83545639	     89.56882650	      1.56327093	     -0.24472445	    -14.15642303	      0.00000000
     15.13333333	    -19.02133344	      2.46938165	      2.81618838	      2.19635690	      1.05373802	      1.02505184	     -0.04879820	     -4.90987266	    -23.61599924	     20.50614958	      0.35789983	     -5.26933713	      7.10903358	      0.00000000	     56.45297100	     -0.65730495	     -6.75450855	     85.62998292	      1.49452514	      0.05851074	    -14.74039337	      0.00000000
     15.14000000	    -19.22153259	      3.03109442	      2.84007870	      2.19896744	      1.05801403	      1.02556171	     -1.63775038	     -5.45402305	    -24.24452055	     19.43556563	      0.33921461	     -9.61697502	      6.48408135	      0.00000000	     56.65837090	     -0.02207398	     -7.67995931	     81.51957874	      1.42278505	      0.38303259	    -15.15855835	      0.00000000
     15.14666667	    -19.38145613	      3.51124940	      2.77083762	      2.20145931	      1.06204152	      1.02611170	     -3.03746943	     -5.96846383	    -24.69244722	     18.78788351	      0.32791043	    -13.59906702	      5.47826780	      0.00000000	     56.68550413	      0.46000761	     -8.60091796	     77.24834022	      1.34823788	      0.72873798	    -15.49848245	      0.00000000
     15.15333333	    -19.92580468	      3.84525554	      2.70852719	      2.20346933	      1.06515968	      1.02636377	     -3.67007699	     -6.57749609	    -25.43242792	     18.96698971	      0.33103642	    -16.75951647	      5.03241525	      0.00000000	     57.04947972	      0.86842495	     -9.41632247	     72.85853066	      1.27162125	      1.33595620	    -15.34818214	      0.00000000
     15.16000000	    -19.89071261	      4.23972646	      2.64529478	      2.20541684	      1.06861557	      1.02652837	     -4.75863812	     -7.33578031	    -26.29780330	     19.60760115	      0.34221720	    -19.50667099	      3.93710767	      0.00000000	     56.62505717	      1.31223258	    -10.29041853	     68.26108099	      1.19138061	      1.69248312	    -15.28382518	      0.00000000
     15.16666667	    -19.76271099	      4.52918517	      2.55165514	      2.20713430	      1.07183529	      1.02649566	     -5.72777914	     -7.97760768	    -26.59819471	     20.69301122	      0.36116118	    -21.30648647	      2.83041988	      0.00000000	     55.98343397	      1.71593683	    -11.05258774	     63.51388362	      1.10852639	      2.11561958	    -15.05334117	      0.00000000
     15.17333333	    -19.77947715	      4.67048374	      2.45928924	      2.20842948	      1.07429875	      1.02623681	     -6.28759823	     -8.58779222	    -26.76018472	     22.37405947	      0.39050100	    -22.46764042	      1.74895235	      0.00000000	     55.41606206	      2.01037876	    -11.76969105	     58.69957353	      1.02450083	      2.67959608	    -14.30230023	      0.00000000
     15.18000000	    -19.70182707	      4.76766640	      2.36802910	      2.20945853	      1.07641327	      1.02581080	     -6.73678699	     -9.16048613	    -26.49249060	     24.50359163	      0.42766835	    -22.96678870	      0.59578373	      0.00000000	     54.62357305	      2.29786871	    -12.49346025	     53.76905182	      0.93844699	      3.26489021	    -13.20574895	      0.00000000
